solid Visualization Toolkit generated SLA File
 facet normal -0.9510565684784239 0.30901683377130906 0
  outer loop
   vertex 0.096847750246524811 -0.034263357520103455 0.069626301527023315
   vertex 0.096847750246524811 -0.034263357520103455 0.079626299440860748
   vertex 0.097420699894428253 -0.032499998807907104 0.069626301527023315
  endloop
 endfacet
 facet normal -0.9510565684784239 0.30901683377130906 0
  outer loop
   vertex 0.097420699894428253 -0.032499998807907104 0.069626301527023315
   vertex 0.096847750246524811 -0.034263357520103455 0.079626299440860748
   vertex 0.097420699894428253 -0.032499998807907104 0.079626299440860748
  endloop
 endfacet
 facet normal -0.95105637661538256 -0.30901742426474837 -0
  outer loop
   vertex 0.097420699894428253 -0.032499998807907104 0.069626301527023315
   vertex 0.097420699894428253 -0.032499998807907104 0.079626299440860748
   vertex 0.096847750246524811 -0.030736643821001053 0.069626301527023315
  endloop
 endfacet
 facet normal -0.95105637661538256 -0.30901742426474837 0
  outer loop
   vertex 0.096847750246524811 -0.030736643821001053 0.069626301527023315
   vertex 0.097420699894428253 -0.032499998807907104 0.079626299440860748
   vertex 0.096847750246524811 -0.030736643821001053 0.079626299440860748
  endloop
 endfacet
 facet normal -0.58778425933749323 -0.80901771579803761 -0
  outer loop
   vertex 0.096847750246524811 -0.030736643821001053 0.069626301527023315
   vertex 0.096847750246524811 -0.030736643821001053 0.079626299440860748
   vertex 0.095347747206687927 -0.029646830633282661 0.069626301527023315
  endloop
 endfacet
 facet normal -0.58778425933749323 -0.80901771579803761 0
  outer loop
   vertex 0.095347747206687927 -0.029646830633282661 0.069626301527023315
   vertex 0.096847750246524811 -0.030736643821001053 0.079626299440860748
   vertex 0.095347747206687927 -0.029646830633282661 0.079626299440860748
  endloop
 endfacet
 facet normal 0 -1 -0
  outer loop
   vertex 0.095347747206687927 -0.029646830633282661 0.069626301527023315
   vertex 0.095347747206687927 -0.029646830633282661 0.079626299440860748
   vertex 0.093493647873401642 -0.029646830633282661 0.069626301527023315
  endloop
 endfacet
 facet normal -0 -1 0
  outer loop
   vertex 0.093493647873401642 -0.029646830633282661 0.069626301527023315
   vertex 0.095347747206687927 -0.029646830633282661 0.079626299440860748
   vertex 0.093493647873401642 -0.029646830633282661 0.079626299440860748
  endloop
 endfacet
 facet normal 0.58778425933749323 -0.80901771579803761 0
  outer loop
   vertex 0.093493647873401642 -0.029646830633282661 0.069626301527023315
   vertex 0.093493647873401642 -0.029646830633282661 0.079626299440860748
   vertex 0.091993644833564758 -0.030736643821001053 0.069626301527023315
  endloop
 endfacet
 facet normal 0.58778425933749323 -0.80901771579803761 0
  outer loop
   vertex 0.091993644833564758 -0.030736643821001053 0.069626301527023315
   vertex 0.093493647873401642 -0.029646830633282661 0.079626299440860748
   vertex 0.091993644833564758 -0.030736643821001053 0.079626299440860748
  endloop
 endfacet
 facet normal 0.95105637661538256 -0.30901742426474837 0
  outer loop
   vertex 0.091993644833564758 -0.030736643821001053 0.069626301527023315
   vertex 0.091993644833564758 -0.030736643821001053 0.079626299440860748
   vertex 0.091420695185661316 -0.032499998807907104 0.069626301527023315
  endloop
 endfacet
 facet normal 0.95105637661538256 -0.30901742426474837 0
  outer loop
   vertex 0.091420695185661316 -0.032499998807907104 0.069626301527023315
   vertex 0.091993644833564758 -0.030736643821001053 0.079626299440860748
   vertex 0.091420695185661316 -0.032499998807907104 0.079626299440860748
  endloop
 endfacet
 facet normal 0.9510565684784239 0.30901683377130906 0
  outer loop
   vertex 0.091420695185661316 -0.032499998807907104 0.069626301527023315
   vertex 0.091420695185661316 -0.032499998807907104 0.079626299440860748
   vertex 0.091993644833564758 -0.034263357520103455 0.069626301527023315
  endloop
 endfacet
 facet normal 0.9510565684784239 0.30901683377130906 0
  outer loop
   vertex 0.091993644833564758 -0.034263357520103455 0.069626301527023315
   vertex 0.091420695185661316 -0.032499998807907104 0.079626299440860748
   vertex 0.091993644833564758 -0.034263357520103455 0.079626299440860748
  endloop
 endfacet
 facet normal 0.58778360181219524 0.80901819351648874 0
  outer loop
   vertex 0.091993644833564758 -0.034263357520103455 0.069626301527023315
   vertex 0.091993644833564758 -0.034263357520103455 0.079626299440860748
   vertex 0.093493647873401642 -0.035353168845176697 0.069626301527023315
  endloop
 endfacet
 facet normal 0.58778360181219524 0.80901819351648874 0
  outer loop
   vertex 0.093493647873401642 -0.035353168845176697 0.069626301527023315
   vertex 0.091993644833564758 -0.034263357520103455 0.079626299440860748
   vertex 0.093493647873401642 -0.035353168845176697 0.079626299440860748
  endloop
 endfacet
 facet normal 0 1 0
  outer loop
   vertex 0.093493647873401642 -0.035353168845176697 0.069626301527023315
   vertex 0.093493647873401642 -0.035353168845176697 0.079626299440860748
   vertex 0.095347747206687927 -0.035353168845176697 0.069626301527023315
  endloop
 endfacet
 facet normal -0 1 0
  outer loop
   vertex 0.095347747206687927 -0.035353168845176697 0.069626301527023315
   vertex 0.093493647873401642 -0.035353168845176697 0.079626299440860748
   vertex 0.095347747206687927 -0.035353168845176697 0.079626299440860748
  endloop
 endfacet
 facet normal -0.58778360181219524 0.80901819351648874 0
  outer loop
   vertex 0.095347747206687927 -0.035353168845176697 0.069626301527023315
   vertex 0.095347747206687927 -0.035353168845176697 0.079626299440860748
   vertex 0.096847750246524811 -0.034263357520103455 0.069626301527023315
  endloop
 endfacet
 facet normal -0.58778360181219524 0.80901819351648874 0
  outer loop
   vertex 0.096847750246524811 -0.034263357520103455 0.069626301527023315
   vertex 0.095347747206687927 -0.035353168845176697 0.079626299440860748
   vertex 0.096847750246524811 -0.034263357520103455 0.079626299440860748
  endloop
 endfacet
 facet normal -0 0 1
  outer loop
   vertex 0.096847750246524811 -0.030736643821001053 0.069626301527023315
   vertex 0.091993644833564758 -0.030736643821001053 0.069626301527023315
   vertex 0.097420699894428253 -0.032499998807907104 0.069626301527023315
  endloop
 endfacet
 facet normal 0 0 1
  outer loop
   vertex 0.097420699894428253 -0.032499998807907104 0.069626301527023315
   vertex 0.091993644833564758 -0.030736643821001053 0.069626301527023315
   vertex 0.091420695185661316 -0.032499998807907104 0.069626301527023315
  endloop
 endfacet
 facet normal -0 0 1
  outer loop
   vertex 0.097420699894428253 -0.032499998807907104 0.069626301527023315
   vertex 0.091420695185661316 -0.032499998807907104 0.069626301527023315
   vertex 0.096847750246524811 -0.034263357520103455 0.069626301527023315
  endloop
 endfacet
 facet normal 0 0 1
  outer loop
   vertex 0.096847750246524811 -0.034263357520103455 0.069626301527023315
   vertex 0.091420695185661316 -0.032499998807907104 0.069626301527023315
   vertex 0.091993644833564758 -0.034263357520103455 0.069626301527023315
  endloop
 endfacet
 facet normal -0 0 1
  outer loop
   vertex 0.096847750246524811 -0.034263357520103455 0.069626301527023315
   vertex 0.091993644833564758 -0.034263357520103455 0.069626301527023315
   vertex 0.095347747206687927 -0.035353168845176697 0.069626301527023315
  endloop
 endfacet
 facet normal 0 0 1
  outer loop
   vertex 0.095347747206687927 -0.035353168845176697 0.069626301527023315
   vertex 0.091993644833564758 -0.034263357520103455 0.069626301527023315
   vertex 0.093493647873401642 -0.035353168845176697 0.069626301527023315
  endloop
 endfacet
 facet normal -0 0 1
  outer loop
   vertex 0.095347747206687927 -0.029646830633282661 0.069626301527023315
   vertex 0.093493647873401642 -0.029646830633282661 0.069626301527023315
   vertex 0.096847750246524811 -0.030736643821001053 0.069626301527023315
  endloop
 endfacet
 facet normal 0 0 1
  outer loop
   vertex 0.096847750246524811 -0.030736643821001053 0.069626301527023315
   vertex 0.093493647873401642 -0.029646830633282661 0.069626301527023315
   vertex 0.091993644833564758 -0.030736643821001053 0.069626301527023315
  endloop
 endfacet
 facet normal -0.95105637661538256 0.30901742426474837 0
  outer loop
   vertex 0.16184774041175842 0.030736643821001053 0.069626301527023315
   vertex 0.16184774041175842 0.030736643821001053 0.079626299440860748
   vertex 0.16242069005966187 0.032499998807907104 0.069626301527023315
  endloop
 endfacet
 facet normal -0.95105637661538256 0.30901742426474837 0
  outer loop
   vertex 0.16242069005966187 0.032499998807907104 0.069626301527023315
   vertex 0.16184774041175842 0.030736643821001053 0.079626299440860748
   vertex 0.16242069005966187 0.032499998807907104 0.079626299440860748
  endloop
 endfacet
 facet normal -0.9510565684784239 -0.30901683377130906 -0
  outer loop
   vertex 0.16242069005966187 0.032499998807907104 0.069626301527023315
   vertex 0.16242069005966187 0.032499998807907104 0.079626299440860748
   vertex 0.16184774041175842 0.034263357520103455 0.069626301527023315
  endloop
 endfacet
 facet normal -0.9510565684784239 -0.30901683377130906 0
  outer loop
   vertex 0.16184774041175842 0.034263357520103455 0.069626301527023315
   vertex 0.16242069005966187 0.032499998807907104 0.079626299440860748
   vertex 0.16184774041175842 0.034263357520103455 0.079626299440860748
  endloop
 endfacet
 facet normal -0.58778551269063151 -0.80901680518454722 -0
  outer loop
   vertex 0.16184774041175842 0.034263357520103455 0.069626301527023315
   vertex 0.16184774041175842 0.034263357520103455 0.079626299440860748
   vertex 0.16034774482250214 0.035353168845176697 0.069626301527023315
  endloop
 endfacet
 facet normal -0.58778551269063151 -0.80901680518454722 0
  outer loop
   vertex 0.16034774482250214 0.035353168845176697 0.069626301527023315
   vertex 0.16184774041175842 0.034263357520103455 0.079626299440860748
   vertex 0.16034774482250214 0.035353168845176697 0.079626299440860748
  endloop
 endfacet
 facet normal 0 -1 -0
  outer loop
   vertex 0.16034774482250214 0.035353168845176697 0.069626301527023315
   vertex 0.16034774482250214 0.035353168845176697 0.079626299440860748
   vertex 0.15849363803863525 0.035353168845176697 0.069626301527023315
  endloop
 endfacet
 facet normal -0 -1 0
  outer loop
   vertex 0.15849363803863525 0.035353168845176697 0.069626301527023315
   vertex 0.16034774482250214 0.035353168845176697 0.079626299440860748
   vertex 0.15849363803863525 0.035353168845176697 0.079626299440860748
  endloop
 endfacet
 facet normal 0.58778551269063151 -0.80901680518454722 0
  outer loop
   vertex 0.15849363803863525 0.035353168845176697 0.069626301527023315
   vertex 0.15849363803863525 0.035353168845176697 0.079626299440860748
   vertex 0.15699364244937897 0.034263357520103455 0.069626301527023315
  endloop
 endfacet
 facet normal 0.58778551269063151 -0.80901680518454722 0
  outer loop
   vertex 0.15699364244937897 0.034263357520103455 0.069626301527023315
   vertex 0.15849363803863525 0.035353168845176697 0.079626299440860748
   vertex 0.15699364244937897 0.034263357520103455 0.079626299440860748
  endloop
 endfacet
 facet normal 0.9510565684784239 -0.30901683377130906 0
  outer loop
   vertex 0.15699364244937897 0.034263357520103455 0.069626301527023315
   vertex 0.15699364244937897 0.034263357520103455 0.079626299440860748
   vertex 0.15642069280147552 0.032499998807907104 0.069626301527023315
  endloop
 endfacet
 facet normal 0.9510565684784239 -0.30901683377130906 0
  outer loop
   vertex 0.15642069280147552 0.032499998807907104 0.069626301527023315
   vertex 0.15699364244937897 0.034263357520103455 0.079626299440860748
   vertex 0.15642069280147552 0.032499998807907104 0.079626299440860748
  endloop
 endfacet
 facet normal 0.95105637661538256 0.30901742426474837 0
  outer loop
   vertex 0.15642069280147552 0.032499998807907104 0.069626301527023315
   vertex 0.15642069280147552 0.032499998807907104 0.079626299440860748
   vertex 0.15699364244937897 0.030736643821001053 0.069626301527023315
  endloop
 endfacet
 facet normal 0.95105637661538256 0.30901742426474837 0
  outer loop
   vertex 0.15699364244937897 0.030736643821001053 0.069626301527023315
   vertex 0.15642069280147552 0.032499998807907104 0.079626299440860748
   vertex 0.15699364244937897 0.030736643821001053 0.079626299440860748
  endloop
 endfacet
 facet normal 0.58778617021581048 0.8090163274638098 0
  outer loop
   vertex 0.15699364244937897 0.030736643821001053 0.069626301527023315
   vertex 0.15699364244937897 0.030736643821001053 0.079626299440860748
   vertex 0.15849363803863525 0.029646830633282661 0.069626301527023315
  endloop
 endfacet
 facet normal 0.58778617021581048 0.8090163274638098 0
  outer loop
   vertex 0.15849363803863525 0.029646830633282661 0.069626301527023315
   vertex 0.15699364244937897 0.030736643821001053 0.079626299440860748
   vertex 0.15849363803863525 0.029646830633282661 0.079626299440860748
  endloop
 endfacet
 facet normal 0 1 0
  outer loop
   vertex 0.15849363803863525 0.029646830633282661 0.069626301527023315
   vertex 0.15849363803863525 0.029646830633282661 0.079626299440860748
   vertex 0.16034774482250214 0.029646830633282661 0.069626301527023315
  endloop
 endfacet
 facet normal -0 1 0
  outer loop
   vertex 0.16034774482250214 0.029646830633282661 0.069626301527023315
   vertex 0.15849363803863525 0.029646830633282661 0.079626299440860748
   vertex 0.16034774482250214 0.029646830633282661 0.079626299440860748
  endloop
 endfacet
 facet normal -0.58778617021581048 0.8090163274638098 0
  outer loop
   vertex 0.16034774482250214 0.029646830633282661 0.069626301527023315
   vertex 0.16034774482250214 0.029646830633282661 0.079626299440860748
   vertex 0.16184774041175842 0.030736643821001053 0.069626301527023315
  endloop
 endfacet
 facet normal -0.58778617021581048 0.8090163274638098 0
  outer loop
   vertex 0.16184774041175842 0.030736643821001053 0.069626301527023315
   vertex 0.16034774482250214 0.029646830633282661 0.079626299440860748
   vertex 0.16184774041175842 0.030736643821001053 0.079626299440860748
  endloop
 endfacet
 facet normal -0 0 1
  outer loop
   vertex 0.16184774041175842 0.034263357520103455 0.069626301527023315
   vertex 0.15699364244937897 0.034263357520103455 0.069626301527023315
   vertex 0.16242069005966187 0.032499998807907104 0.069626301527023315
  endloop
 endfacet
 facet normal 0 0 1
  outer loop
   vertex 0.16242069005966187 0.032499998807907104 0.069626301527023315
   vertex 0.15699364244937897 0.034263357520103455 0.069626301527023315
   vertex 0.15642069280147552 0.032499998807907104 0.069626301527023315
  endloop
 endfacet
 facet normal -0 0 1
  outer loop
   vertex 0.16242069005966187 0.032499998807907104 0.069626301527023315
   vertex 0.15642069280147552 0.032499998807907104 0.069626301527023315
   vertex 0.16184774041175842 0.030736643821001053 0.069626301527023315
  endloop
 endfacet
 facet normal 0 0 1
  outer loop
   vertex 0.16184774041175842 0.030736643821001053 0.069626301527023315
   vertex 0.15642069280147552 0.032499998807907104 0.069626301527023315
   vertex 0.15699364244937897 0.030736643821001053 0.069626301527023315
  endloop
 endfacet
 facet normal -0 0 1
  outer loop
   vertex 0.16184774041175842 0.030736643821001053 0.069626301527023315
   vertex 0.15699364244937897 0.030736643821001053 0.069626301527023315
   vertex 0.16034774482250214 0.029646830633282661 0.069626301527023315
  endloop
 endfacet
 facet normal 0 0 1
  outer loop
   vertex 0.16034774482250214 0.029646830633282661 0.069626301527023315
   vertex 0.15699364244937897 0.030736643821001053 0.069626301527023315
   vertex 0.15849363803863525 0.029646830633282661 0.069626301527023315
  endloop
 endfacet
 facet normal -0 0 1
  outer loop
   vertex 0.16034774482250214 0.035353168845176697 0.069626301527023315
   vertex 0.15849363803863525 0.035353168845176697 0.069626301527023315
   vertex 0.16184774041175842 0.034263357520103455 0.069626301527023315
  endloop
 endfacet
 facet normal 0 0 1
  outer loop
   vertex 0.16184774041175842 0.034263357520103455 0.069626301527023315
   vertex 0.15849363803863525 0.035353168845176697 0.069626301527023315
   vertex 0.15699364244937897 0.034263357520103455 0.069626301527023315
  endloop
 endfacet
 facet normal -0.9510565684784239 0.30901683377130906 0
  outer loop
   vertex 0.16184774041175842 -0.034263357520103455 0.069626301527023315
   vertex 0.16184774041175842 -0.034263357520103455 0.079626299440860748
   vertex 0.16242069005966187 -0.032499998807907104 0.069626301527023315
  endloop
 endfacet
 facet normal -0.9510565684784239 0.30901683377130906 0
  outer loop
   vertex 0.16242069005966187 -0.032499998807907104 0.069626301527023315
   vertex 0.16184774041175842 -0.034263357520103455 0.079626299440860748
   vertex 0.16242069005966187 -0.032499998807907104 0.079626299440860748
  endloop
 endfacet
 facet normal -0.95105637661538256 -0.30901742426474837 -0
  outer loop
   vertex 0.16242069005966187 -0.032499998807907104 0.069626301527023315
   vertex 0.16242069005966187 -0.032499998807907104 0.079626299440860748
   vertex 0.16184774041175842 -0.030736643821001053 0.069626301527023315
  endloop
 endfacet
 facet normal -0.95105637661538256 -0.30901742426474837 0
  outer loop
   vertex 0.16184774041175842 -0.030736643821001053 0.069626301527023315
   vertex 0.16242069005966187 -0.032499998807907104 0.079626299440860748
   vertex 0.16184774041175842 -0.030736643821001053 0.079626299440860748
  endloop
 endfacet
 facet normal -0.58778617021581048 -0.8090163274638098 -0
  outer loop
   vertex 0.16184774041175842 -0.030736643821001053 0.069626301527023315
   vertex 0.16184774041175842 -0.030736643821001053 0.079626299440860748
   vertex 0.16034774482250214 -0.029646830633282661 0.069626301527023315
  endloop
 endfacet
 facet normal -0.58778617021581048 -0.8090163274638098 0
  outer loop
   vertex 0.16034774482250214 -0.029646830633282661 0.069626301527023315
   vertex 0.16184774041175842 -0.030736643821001053 0.079626299440860748
   vertex 0.16034774482250214 -0.029646830633282661 0.079626299440860748
  endloop
 endfacet
 facet normal 0 -1 -0
  outer loop
   vertex 0.16034774482250214 -0.029646830633282661 0.069626301527023315
   vertex 0.16034774482250214 -0.029646830633282661 0.079626299440860748
   vertex 0.15849363803863525 -0.029646830633282661 0.069626301527023315
  endloop
 endfacet
 facet normal -0 -1 0
  outer loop
   vertex 0.15849363803863525 -0.029646830633282661 0.069626301527023315
   vertex 0.16034774482250214 -0.029646830633282661 0.079626299440860748
   vertex 0.15849363803863525 -0.029646830633282661 0.079626299440860748
  endloop
 endfacet
 facet normal 0.58778617021581048 -0.8090163274638098 0
  outer loop
   vertex 0.15849363803863525 -0.029646830633282661 0.069626301527023315
   vertex 0.15849363803863525 -0.029646830633282661 0.079626299440860748
   vertex 0.15699364244937897 -0.030736643821001053 0.069626301527023315
  endloop
 endfacet
 facet normal 0.58778617021581048 -0.8090163274638098 0
  outer loop
   vertex 0.15699364244937897 -0.030736643821001053 0.069626301527023315
   vertex 0.15849363803863525 -0.029646830633282661 0.079626299440860748
   vertex 0.15699364244937897 -0.030736643821001053 0.079626299440860748
  endloop
 endfacet
 facet normal 0.95105637661538256 -0.30901742426474837 0
  outer loop
   vertex 0.15699364244937897 -0.030736643821001053 0.069626301527023315
   vertex 0.15699364244937897 -0.030736643821001053 0.079626299440860748
   vertex 0.15642069280147552 -0.032499998807907104 0.069626301527023315
  endloop
 endfacet
 facet normal 0.95105637661538256 -0.30901742426474837 0
  outer loop
   vertex 0.15642069280147552 -0.032499998807907104 0.069626301527023315
   vertex 0.15699364244937897 -0.030736643821001053 0.079626299440860748
   vertex 0.15642069280147552 -0.032499998807907104 0.079626299440860748
  endloop
 endfacet
 facet normal 0.9510565684784239 0.30901683377130906 0
  outer loop
   vertex 0.15642069280147552 -0.032499998807907104 0.069626301527023315
   vertex 0.15642069280147552 -0.032499998807907104 0.079626299440860748
   vertex 0.15699364244937897 -0.034263357520103455 0.069626301527023315
  endloop
 endfacet
 facet normal 0.9510565684784239 0.30901683377130906 0
  outer loop
   vertex 0.15699364244937897 -0.034263357520103455 0.069626301527023315
   vertex 0.15642069280147552 -0.032499998807907104 0.079626299440860748
   vertex 0.15699364244937897 -0.034263357520103455 0.079626299440860748
  endloop
 endfacet
 facet normal 0.58778551269063151 0.80901680518454722 0
  outer loop
   vertex 0.15699364244937897 -0.034263357520103455 0.069626301527023315
   vertex 0.15699364244937897 -0.034263357520103455 0.079626299440860748
   vertex 0.15849363803863525 -0.035353168845176697 0.069626301527023315
  endloop
 endfacet
 facet normal 0.58778551269063151 0.80901680518454722 0
  outer loop
   vertex 0.15849363803863525 -0.035353168845176697 0.069626301527023315
   vertex 0.15699364244937897 -0.034263357520103455 0.079626299440860748
   vertex 0.15849363803863525 -0.035353168845176697 0.079626299440860748
  endloop
 endfacet
 facet normal 0 1 0
  outer loop
   vertex 0.15849363803863525 -0.035353168845176697 0.069626301527023315
   vertex 0.15849363803863525 -0.035353168845176697 0.079626299440860748
   vertex 0.16034774482250214 -0.035353168845176697 0.069626301527023315
  endloop
 endfacet
 facet normal -0 1 0
  outer loop
   vertex 0.16034774482250214 -0.035353168845176697 0.069626301527023315
   vertex 0.15849363803863525 -0.035353168845176697 0.079626299440860748
   vertex 0.16034774482250214 -0.035353168845176697 0.079626299440860748
  endloop
 endfacet
 facet normal -0.58778551269063151 0.80901680518454722 0
  outer loop
   vertex 0.16034774482250214 -0.035353168845176697 0.069626301527023315
   vertex 0.16034774482250214 -0.035353168845176697 0.079626299440860748
   vertex 0.16184774041175842 -0.034263357520103455 0.069626301527023315
  endloop
 endfacet
 facet normal -0.58778551269063151 0.80901680518454722 0
  outer loop
   vertex 0.16184774041175842 -0.034263357520103455 0.069626301527023315
   vertex 0.16034774482250214 -0.035353168845176697 0.079626299440860748
   vertex 0.16184774041175842 -0.034263357520103455 0.079626299440860748
  endloop
 endfacet
 facet normal -0 0 1
  outer loop
   vertex 0.16184774041175842 -0.030736643821001053 0.069626301527023315
   vertex 0.15699364244937897 -0.030736643821001053 0.069626301527023315
   vertex 0.16242069005966187 -0.032499998807907104 0.069626301527023315
  endloop
 endfacet
 facet normal 0 0 1
  outer loop
   vertex 0.16242069005966187 -0.032499998807907104 0.069626301527023315
   vertex 0.15699364244937897 -0.030736643821001053 0.069626301527023315
   vertex 0.15642069280147552 -0.032499998807907104 0.069626301527023315
  endloop
 endfacet
 facet normal -0 0 1
  outer loop
   vertex 0.16242069005966187 -0.032499998807907104 0.069626301527023315
   vertex 0.15642069280147552 -0.032499998807907104 0.069626301527023315
   vertex 0.16184774041175842 -0.034263357520103455 0.069626301527023315
  endloop
 endfacet
 facet normal 0 0 1
  outer loop
   vertex 0.16184774041175842 -0.034263357520103455 0.069626301527023315
   vertex 0.15642069280147552 -0.032499998807907104 0.069626301527023315
   vertex 0.15699364244937897 -0.034263357520103455 0.069626301527023315
  endloop
 endfacet
 facet normal -0 0 1
  outer loop
   vertex 0.16184774041175842 -0.034263357520103455 0.069626301527023315
   vertex 0.15699364244937897 -0.034263357520103455 0.069626301527023315
   vertex 0.16034774482250214 -0.035353168845176697 0.069626301527023315
  endloop
 endfacet
 facet normal 0 0 1
  outer loop
   vertex 0.16034774482250214 -0.035353168845176697 0.069626301527023315
   vertex 0.15699364244937897 -0.034263357520103455 0.069626301527023315
   vertex 0.15849363803863525 -0.035353168845176697 0.069626301527023315
  endloop
 endfacet
 facet normal -0 0 1
  outer loop
   vertex 0.16034774482250214 -0.029646830633282661 0.069626301527023315
   vertex 0.15849363803863525 -0.029646830633282661 0.069626301527023315
   vertex 0.16184774041175842 -0.030736643821001053 0.069626301527023315
  endloop
 endfacet
 facet normal 0 0 1
  outer loop
   vertex 0.16184774041175842 -0.030736643821001053 0.069626301527023315
   vertex 0.15849363803863525 -0.029646830633282661 0.069626301527023315
   vertex 0.15699364244937897 -0.030736643821001053 0.069626301527023315
  endloop
 endfacet
 facet normal -0.95105637661538256 0.30901742426474837 0
  outer loop
   vertex 0.096847750246524811 0.030736643821001053 0.069626301527023315
   vertex 0.096847750246524811 0.030736643821001053 0.079626299440860748
   vertex 0.097420699894428253 0.032499998807907104 0.069626301527023315
  endloop
 endfacet
 facet normal -0.95105637661538256 0.30901742426474837 0
  outer loop
   vertex 0.097420699894428253 0.032499998807907104 0.069626301527023315
   vertex 0.096847750246524811 0.030736643821001053 0.079626299440860748
   vertex 0.097420699894428253 0.032499998807907104 0.079626299440860748
  endloop
 endfacet
 facet normal -0.9510565684784239 -0.30901683377130906 -0
  outer loop
   vertex 0.097420699894428253 0.032499998807907104 0.069626301527023315
   vertex 0.097420699894428253 0.032499998807907104 0.079626299440860748
   vertex 0.096847750246524811 0.034263357520103455 0.069626301527023315
  endloop
 endfacet
 facet normal -0.9510565684784239 -0.30901683377130906 0
  outer loop
   vertex 0.096847750246524811 0.034263357520103455 0.069626301527023315
   vertex 0.097420699894428253 0.032499998807907104 0.079626299440860748
   vertex 0.096847750246524811 0.034263357520103455 0.079626299440860748
  endloop
 endfacet
 facet normal -0.58778360181219524 -0.80901819351648874 -0
  outer loop
   vertex 0.096847750246524811 0.034263357520103455 0.069626301527023315
   vertex 0.096847750246524811 0.034263357520103455 0.079626299440860748
   vertex 0.095347747206687927 0.035353168845176697 0.069626301527023315
  endloop
 endfacet
 facet normal -0.58778360181219524 -0.80901819351648874 0
  outer loop
   vertex 0.095347747206687927 0.035353168845176697 0.069626301527023315
   vertex 0.096847750246524811 0.034263357520103455 0.079626299440860748
   vertex 0.095347747206687927 0.035353168845176697 0.079626299440860748
  endloop
 endfacet
 facet normal 0 -1 -0
  outer loop
   vertex 0.095347747206687927 0.035353168845176697 0.069626301527023315
   vertex 0.095347747206687927 0.035353168845176697 0.079626299440860748
   vertex 0.093493647873401642 0.035353168845176697 0.069626301527023315
  endloop
 endfacet
 facet normal -0 -1 0
  outer loop
   vertex 0.093493647873401642 0.035353168845176697 0.069626301527023315
   vertex 0.095347747206687927 0.035353168845176697 0.079626299440860748
   vertex 0.093493647873401642 0.035353168845176697 0.079626299440860748
  endloop
 endfacet
 facet normal 0.58778360181219524 -0.80901819351648874 0
  outer loop
   vertex 0.093493647873401642 0.035353168845176697 0.069626301527023315
   vertex 0.093493647873401642 0.035353168845176697 0.079626299440860748
   vertex 0.091993644833564758 0.034263357520103455 0.069626301527023315
  endloop
 endfacet
 facet normal 0.58778360181219524 -0.80901819351648874 0
  outer loop
   vertex 0.091993644833564758 0.034263357520103455 0.069626301527023315
   vertex 0.093493647873401642 0.035353168845176697 0.079626299440860748
   vertex 0.091993644833564758 0.034263357520103455 0.079626299440860748
  endloop
 endfacet
 facet normal 0.9510565684784239 -0.30901683377130906 0
  outer loop
   vertex 0.091993644833564758 0.034263357520103455 0.069626301527023315
   vertex 0.091993644833564758 0.034263357520103455 0.079626299440860748
   vertex 0.091420695185661316 0.032499998807907104 0.069626301527023315
  endloop
 endfacet
 facet normal 0.9510565684784239 -0.30901683377130906 0
  outer loop
   vertex 0.091420695185661316 0.032499998807907104 0.069626301527023315
   vertex 0.091993644833564758 0.034263357520103455 0.079626299440860748
   vertex 0.091420695185661316 0.032499998807907104 0.079626299440860748
  endloop
 endfacet
 facet normal 0.95105637661538256 0.30901742426474837 0
  outer loop
   vertex 0.091420695185661316 0.032499998807907104 0.069626301527023315
   vertex 0.091420695185661316 0.032499998807907104 0.079626299440860748
   vertex 0.091993644833564758 0.030736643821001053 0.069626301527023315
  endloop
 endfacet
 facet normal 0.95105637661538256 0.30901742426474837 0
  outer loop
   vertex 0.091993644833564758 0.030736643821001053 0.069626301527023315
   vertex 0.091420695185661316 0.032499998807907104 0.079626299440860748
   vertex 0.091993644833564758 0.030736643821001053 0.079626299440860748
  endloop
 endfacet
 facet normal 0.58778425933749323 0.80901771579803761 0
  outer loop
   vertex 0.091993644833564758 0.030736643821001053 0.069626301527023315
   vertex 0.091993644833564758 0.030736643821001053 0.079626299440860748
   vertex 0.093493647873401642 0.029646830633282661 0.069626301527023315
  endloop
 endfacet
 facet normal 0.58778425933749323 0.80901771579803761 0
  outer loop
   vertex 0.093493647873401642 0.029646830633282661 0.069626301527023315
   vertex 0.091993644833564758 0.030736643821001053 0.079626299440860748
   vertex 0.093493647873401642 0.029646830633282661 0.079626299440860748
  endloop
 endfacet
 facet normal 0 1 0
  outer loop
   vertex 0.093493647873401642 0.029646830633282661 0.069626301527023315
   vertex 0.093493647873401642 0.029646830633282661 0.079626299440860748
   vertex 0.095347747206687927 0.029646830633282661 0.069626301527023315
  endloop
 endfacet
 facet normal -0 1 0
  outer loop
   vertex 0.095347747206687927 0.029646830633282661 0.069626301527023315
   vertex 0.093493647873401642 0.029646830633282661 0.079626299440860748
   vertex 0.095347747206687927 0.029646830633282661 0.079626299440860748
  endloop
 endfacet
 facet normal -0.58778425933749323 0.80901771579803761 0
  outer loop
   vertex 0.095347747206687927 0.029646830633282661 0.069626301527023315
   vertex 0.095347747206687927 0.029646830633282661 0.079626299440860748
   vertex 0.096847750246524811 0.030736643821001053 0.069626301527023315
  endloop
 endfacet
 facet normal -0.58778425933749323 0.80901771579803761 0
  outer loop
   vertex 0.096847750246524811 0.030736643821001053 0.069626301527023315
   vertex 0.095347747206687927 0.029646830633282661 0.079626299440860748
   vertex 0.096847750246524811 0.030736643821001053 0.079626299440860748
  endloop
 endfacet
 facet normal -0 0 1
  outer loop
   vertex 0.096847750246524811 0.034263357520103455 0.069626301527023315
   vertex 0.091993644833564758 0.034263357520103455 0.069626301527023315
   vertex 0.097420699894428253 0.032499998807907104 0.069626301527023315
  endloop
 endfacet
 facet normal 0 0 1
  outer loop
   vertex 0.097420699894428253 0.032499998807907104 0.069626301527023315
   vertex 0.091993644833564758 0.034263357520103455 0.069626301527023315
   vertex 0.091420695185661316 0.032499998807907104 0.069626301527023315
  endloop
 endfacet
 facet normal -0 0 1
  outer loop
   vertex 0.097420699894428253 0.032499998807907104 0.069626301527023315
   vertex 0.091420695185661316 0.032499998807907104 0.069626301527023315
   vertex 0.096847750246524811 0.030736643821001053 0.069626301527023315
  endloop
 endfacet
 facet normal 0 0 1
  outer loop
   vertex 0.096847750246524811 0.030736643821001053 0.069626301527023315
   vertex 0.091420695185661316 0.032499998807907104 0.069626301527023315
   vertex 0.091993644833564758 0.030736643821001053 0.069626301527023315
  endloop
 endfacet
 facet normal -0 0 1
  outer loop
   vertex 0.096847750246524811 0.030736643821001053 0.069626301527023315
   vertex 0.091993644833564758 0.030736643821001053 0.069626301527023315
   vertex 0.095347747206687927 0.029646830633282661 0.069626301527023315
  endloop
 endfacet
 facet normal 0 0 1
  outer loop
   vertex 0.095347747206687927 0.029646830633282661 0.069626301527023315
   vertex 0.091993644833564758 0.030736643821001053 0.069626301527023315
   vertex 0.093493647873401642 0.029646830633282661 0.069626301527023315
  endloop
 endfacet
 facet normal -0 0 1
  outer loop
   vertex 0.095347747206687927 0.035353168845176697 0.069626301527023315
   vertex 0.093493647873401642 0.035353168845176697 0.069626301527023315
   vertex 0.096847750246524811 0.034263357520103455 0.069626301527023315
  endloop
 endfacet
 facet normal 0 0 1
  outer loop
   vertex 0.096847750246524811 0.034263357520103455 0.069626301527023315
   vertex 0.093493647873401642 0.035353168845176697 0.069626301527023315
   vertex 0.091993644833564758 0.034263357520103455 0.069626301527023315
  endloop
 endfacet
 facet normal 0 0 -1
  outer loop
   vertex 0.027111347764730453 -0.053775399923324585 0
   vertex 0.027111347764730453 0.053775399923324585 0
   vertex 0.28810864686965942 -0.053775399923324585 0
  endloop
 endfacet
 facet normal 0 0 -1
  outer loop
   vertex 0.28810864686965942 -0.053775399923324585 0
   vertex 0.027111347764730453 0.053775399923324585 0
   vertex 0.28810864686965942 0.053775399923324585 0
  endloop
 endfacet
 facet normal -1 0 0
  outer loop
   vertex -0.00053667702013626695 0.026127379387617111 0.027648020535707474
   vertex -0.00053667702013626695 -0.026127379387617111 0.027648020535707474
   vertex -0.00053667702013626695 0.026127379387617111 0.051978278905153275
  endloop
 endfacet
 facet normal -1 0 0
  outer loop
   vertex -0.00053667702013626695 0.026127379387617111 0.051978278905153275
   vertex -0.00053667702013626695 -0.026127379387617111 0.027648020535707474
   vertex -0.00053667702013626695 -0.026127379387617111 0.051978278905153275
  endloop
 endfacet
 facet normal 0 -1 0
  outer loop
   vertex 0.027111347764730453 -0.053775399923324585 0.079626299440860748
   vertex 0.027111347764730453 -0.053775399923324585 0
   vertex 0.22673004865646362 -0.053775399923324585 0.079626299440860748
  endloop
 endfacet
 facet normal 0 -1 0
  outer loop
   vertex 0.22673004865646362 -0.053775399923324585 0.079626299440860748
   vertex 0.027111347764730453 -0.053775399923324585 0
   vertex 0.28810864686965942 -0.053775399923324585 0.051004983484745026
  endloop
 endfacet
 facet normal 0 -1 0
  outer loop
   vertex 0.28810864686965942 -0.053775399923324585 0.051004983484745026
   vertex 0.027111347764730453 -0.053775399923324585 0
   vertex 0.28810864686965942 -0.053775399923324585 0
  endloop
 endfacet
 facet normal 1 -0 0
  outer loop
   vertex 0.28810864686965942 0.053775399923324585 0.051004983484745026
   vertex 0.28810864686965942 -0.053775399923324585 0.051004983484745026
   vertex 0.28810864686965942 0.053775399923324585 0
  endloop
 endfacet
 facet normal 1 0 0
  outer loop
   vertex 0.28810864686965942 0.053775399923324585 0
   vertex 0.28810864686965942 -0.053775399923324585 0.051004983484745026
   vertex 0.28810864686965942 -0.053775399923324585 0
  endloop
 endfacet
 facet normal 0 1 0
  outer loop
   vertex 0.28810864686965942 0.053775399923324585 0
   vertex 0.027111347764730453 0.053775399923324585 0
   vertex 0.28810864686965942 0.053775399923324585 0.051004983484745026
  endloop
 endfacet
 facet normal 0 1 0
  outer loop
   vertex 0.28810864686965942 0.053775399923324585 0.051004983484745026
   vertex 0.027111347764730453 0.053775399923324585 0
   vertex 0.22673004865646362 0.053775399923324585 0.079626299440860748
  endloop
 endfacet
 facet normal 0 1 0
  outer loop
   vertex 0.22673004865646362 0.053775399923324585 0.079626299440860748
   vertex 0.027111347764730453 0.053775399923324585 0
   vertex 0.027111347764730453 0.053775399923324585 0.079626299440860748
  endloop
 endfacet
 facet normal 0 -0 1
  outer loop
   vertex 0.096847750246524811 -0.030736643821001053 0.079626299440860748
   vertex 0.097420699894428253 -0.032499998807907104 0.079626299440860748
   vertex 0.15642069280147552 -0.032499998807907104 0.079626299440860748
  endloop
 endfacet
 facet normal -0 0 1
  outer loop
   vertex 0.15642069280147552 -0.032499998807907104 0.079626299440860748
   vertex 0.097420699894428253 -0.032499998807907104 0.079626299440860748
   vertex 0.096847750246524811 -0.034263357520103455 0.079626299440860748
  endloop
 endfacet
 facet normal 0 0 1
  outer loop
   vertex 0.15642069280147552 -0.032499998807907104 0.079626299440860748
   vertex 0.096847750246524811 -0.034263357520103455 0.079626299440860748
   vertex 0.15699364244937897 -0.034263357520103455 0.079626299440860748
  endloop
 endfacet
 facet normal -0 0 1
  outer loop
   vertex 0.15699364244937897 -0.034263357520103455 0.079626299440860748
   vertex 0.096847750246524811 -0.034263357520103455 0.079626299440860748
   vertex 0.095347747206687927 -0.035353168845176697 0.079626299440860748
  endloop
 endfacet
 facet normal 0 0 1
  outer loop
   vertex 0.15699364244937897 -0.034263357520103455 0.079626299440860748
   vertex 0.095347747206687927 -0.035353168845176697 0.079626299440860748
   vertex 0.15849363803863525 -0.035353168845176697 0.079626299440860748
  endloop
 endfacet
 facet normal -0 0 1
  outer loop
   vertex 0.15849363803863525 -0.035353168845176697 0.079626299440860748
   vertex 0.095347747206687927 -0.035353168845176697 0.079626299440860748
   vertex 0.027111347764730453 -0.053775399923324585 0.079626299440860748
  endloop
 endfacet
 facet normal 0 0 1
  outer loop
   vertex 0.15849363803863525 -0.035353168845176697 0.079626299440860748
   vertex 0.027111347764730453 -0.053775399923324585 0.079626299440860748
   vertex 0.22673004865646362 -0.053775399923324585 0.079626299440860748
  endloop
 endfacet
 facet normal -0 0 1
  outer loop
   vertex 0.095347747206687927 -0.035353168845176697 0.079626299440860748
   vertex 0.093493647873401642 -0.035353168845176697 0.079626299440860748
   vertex 0.027111347764730453 -0.053775399923324585 0.079626299440860748
  endloop
 endfacet
 facet normal 0 0 1
  outer loop
   vertex 0.027111347764730453 -0.053775399923324585 0.079626299440860748
   vertex 0.093493647873401642 -0.035353168845176697 0.079626299440860748
   vertex 0.091993644833564758 -0.034263357520103455 0.079626299440860748
  endloop
 endfacet
 facet normal 0 0 1
  outer loop
   vertex 0.027111347764730453 -0.053775399923324585 0.079626299440860748
   vertex 0.091993644833564758 -0.034263357520103455 0.079626299440860748
   vertex 0.091420695185661316 -0.032499998807907104 0.079626299440860748
  endloop
 endfacet
 facet normal 0 0 1
  outer loop
   vertex 0.091420695185661316 -0.032499998807907104 0.079626299440860748
   vertex 0.091993644833564758 -0.030736643821001053 0.079626299440860748
   vertex 0.027111347764730453 -0.053775399923324585 0.079626299440860748
  endloop
 endfacet
 facet normal 0 -0 1
  outer loop
   vertex 0.027111347764730453 -0.053775399923324585 0.079626299440860748
   vertex 0.091993644833564758 -0.030736643821001053 0.079626299440860748
   vertex 0.091993644833564758 0.030736643821001053 0.079626299440860748
  endloop
 endfacet
 facet normal 0 0 1
  outer loop
   vertex 0.027111347764730453 -0.053775399923324585 0.079626299440860748
   vertex 0.091993644833564758 0.030736643821001053 0.079626299440860748
   vertex 0.027111347764730453 0.053775399923324585 0.079626299440860748
  endloop
 endfacet
 facet normal 0 0 1
  outer loop
   vertex 0.027111347764730453 0.053775399923324585 0.079626299440860748
   vertex 0.091993644833564758 0.030736643821001053 0.079626299440860748
   vertex 0.091420695185661316 0.032499998807907104 0.079626299440860748
  endloop
 endfacet
 facet normal 0 -0 1
  outer loop
   vertex 0.027111347764730453 0.053775399923324585 0.079626299440860748
   vertex 0.091420695185661316 0.032499998807907104 0.079626299440860748
   vertex 0.091993644833564758 0.034263357520103455 0.079626299440860748
  endloop
 endfacet
 facet normal 0 0 1
  outer loop
   vertex 0.091993644833564758 0.030736643821001053 0.079626299440860748
   vertex 0.091993644833564758 -0.030736643821001053 0.079626299440860748
   vertex 0.093493647873401642 0.029646830633282661 0.079626299440860748
  endloop
 endfacet
 facet normal 0 0 1
  outer loop
   vertex 0.093493647873401642 0.029646830633282661 0.079626299440860748
   vertex 0.091993644833564758 -0.030736643821001053 0.079626299440860748
   vertex 0.093493647873401642 -0.029646830633282661 0.079626299440860748
  endloop
 endfacet
 facet normal 0 0 1
  outer loop
   vertex 0.093493647873401642 0.029646830633282661 0.079626299440860748
   vertex 0.093493647873401642 -0.029646830633282661 0.079626299440860748
   vertex 0.095347747206687927 0.029646830633282661 0.079626299440860748
  endloop
 endfacet
 facet normal 0 0 1
  outer loop
   vertex 0.095347747206687927 0.029646830633282661 0.079626299440860748
   vertex 0.093493647873401642 -0.029646830633282661 0.079626299440860748
   vertex 0.095347747206687927 -0.029646830633282661 0.079626299440860748
  endloop
 endfacet
 facet normal 0 0 1
  outer loop
   vertex 0.095347747206687927 0.029646830633282661 0.079626299440860748
   vertex 0.095347747206687927 -0.029646830633282661 0.079626299440860748
   vertex 0.15849363803863525 0.029646830633282661 0.079626299440860748
  endloop
 endfacet
 facet normal 0 0 1
  outer loop
   vertex 0.15849363803863525 0.029646830633282661 0.079626299440860748
   vertex 0.095347747206687927 -0.029646830633282661 0.079626299440860748
   vertex 0.15849363803863525 -0.029646830633282661 0.079626299440860748
  endloop
 endfacet
 facet normal 0 0 1
  outer loop
   vertex 0.15849363803863525 0.029646830633282661 0.079626299440860748
   vertex 0.15849363803863525 -0.029646830633282661 0.079626299440860748
   vertex 0.16034774482250214 0.029646830633282661 0.079626299440860748
  endloop
 endfacet
 facet normal 0 0 1
  outer loop
   vertex 0.16034774482250214 0.029646830633282661 0.079626299440860748
   vertex 0.15849363803863525 -0.029646830633282661 0.079626299440860748
   vertex 0.16034774482250214 -0.029646830633282661 0.079626299440860748
  endloop
 endfacet
 facet normal 0 0 1
  outer loop
   vertex 0.16034774482250214 0.029646830633282661 0.079626299440860748
   vertex 0.16034774482250214 -0.029646830633282661 0.079626299440860748
   vertex 0.16184774041175842 0.030736643821001053 0.079626299440860748
  endloop
 endfacet
 facet normal -0 0 1
  outer loop
   vertex 0.16184774041175842 0.030736643821001053 0.079626299440860748
   vertex 0.16034774482250214 -0.029646830633282661 0.079626299440860748
   vertex 0.16184774041175842 -0.030736643821001053 0.079626299440860748
  endloop
 endfacet
 facet normal 0 0 1
  outer loop
   vertex 0.16184774041175842 0.030736643821001053 0.079626299440860748
   vertex 0.16184774041175842 -0.030736643821001053 0.079626299440860748
   vertex 0.22673004865646362 0.053775399923324585 0.079626299440860748
  endloop
 endfacet
 facet normal -0 0 1
  outer loop
   vertex 0.22673004865646362 0.053775399923324585 0.079626299440860748
   vertex 0.16184774041175842 -0.030736643821001053 0.079626299440860748
   vertex 0.22673004865646362 -0.053775399923324585 0.079626299440860748
  endloop
 endfacet
 facet normal 0 0 1
  outer loop
   vertex 0.22673004865646362 -0.053775399923324585 0.079626299440860748
   vertex 0.16184774041175842 -0.030736643821001053 0.079626299440860748
   vertex 0.16242069005966187 -0.032499998807907104 0.079626299440860748
  endloop
 endfacet
 facet normal 0 0 1
  outer loop
   vertex 0.22673004865646362 -0.053775399923324585 0.079626299440860748
   vertex 0.16242069005966187 -0.032499998807907104 0.079626299440860748
   vertex 0.16184774041175842 -0.034263357520103455 0.079626299440860748
  endloop
 endfacet
 facet normal -0 0 1
  outer loop
   vertex 0.15849363803863525 -0.029646830633282661 0.079626299440860748
   vertex 0.095347747206687927 -0.029646830633282661 0.079626299440860748
   vertex 0.15699364244937897 -0.030736643821001053 0.079626299440860748
  endloop
 endfacet
 facet normal 0 0 1
  outer loop
   vertex 0.15699364244937897 -0.030736643821001053 0.079626299440860748
   vertex 0.095347747206687927 -0.029646830633282661 0.079626299440860748
   vertex 0.096847750246524811 -0.030736643821001053 0.079626299440860748
  endloop
 endfacet
 facet normal -0 0 1
  outer loop
   vertex 0.15699364244937897 -0.030736643821001053 0.079626299440860748
   vertex 0.096847750246524811 -0.030736643821001053 0.079626299440860748
   vertex 0.15642069280147552 -0.032499998807907104 0.079626299440860748
  endloop
 endfacet
 facet normal 0 -0 1
  outer loop
   vertex 0.16184774041175842 0.034263357520103455 0.079626299440860748
   vertex 0.16242069005966187 0.032499998807907104 0.079626299440860748
   vertex 0.22673004865646362 0.053775399923324585 0.079626299440860748
  endloop
 endfacet
 facet normal -0 0 1
  outer loop
   vertex 0.22673004865646362 0.053775399923324585 0.079626299440860748
   vertex 0.16242069005966187 0.032499998807907104 0.079626299440860748
   vertex 0.16184774041175842 0.030736643821001053 0.079626299440860748
  endloop
 endfacet
 facet normal 0 0 1
  outer loop
   vertex 0.15849363803863525 0.029646830633282661 0.079626299440860748
   vertex 0.15699364244937897 0.030736643821001053 0.079626299440860748
   vertex 0.095347747206687927 0.029646830633282661 0.079626299440860748
  endloop
 endfacet
 facet normal 0 0 1
  outer loop
   vertex 0.095347747206687927 0.029646830633282661 0.079626299440860748
   vertex 0.15699364244937897 0.030736643821001053 0.079626299440860748
   vertex 0.096847750246524811 0.030736643821001053 0.079626299440860748
  endloop
 endfacet
 facet normal 0 0 1
  outer loop
   vertex 0.096847750246524811 0.030736643821001053 0.079626299440860748
   vertex 0.15699364244937897 0.030736643821001053 0.079626299440860748
   vertex 0.15642069280147552 0.032499998807907104 0.079626299440860748
  endloop
 endfacet
 facet normal 0 0 1
  outer loop
   vertex 0.096847750246524811 0.030736643821001053 0.079626299440860748
   vertex 0.15642069280147552 0.032499998807907104 0.079626299440860748
   vertex 0.097420699894428253 0.032499998807907104 0.079626299440860748
  endloop
 endfacet
 facet normal 0 0 1
  outer loop
   vertex 0.097420699894428253 0.032499998807907104 0.079626299440860748
   vertex 0.15642069280147552 0.032499998807907104 0.079626299440860748
   vertex 0.096847750246524811 0.034263357520103455 0.079626299440860748
  endloop
 endfacet
 facet normal 0 -0 1
  outer loop
   vertex 0.096847750246524811 0.034263357520103455 0.079626299440860748
   vertex 0.15642069280147552 0.032499998807907104 0.079626299440860748
   vertex 0.15699364244937897 0.034263357520103455 0.079626299440860748
  endloop
 endfacet
 facet normal 0 0 1
  outer loop
   vertex 0.096847750246524811 0.034263357520103455 0.079626299440860748
   vertex 0.15699364244937897 0.034263357520103455 0.079626299440860748
   vertex 0.095347747206687927 0.035353168845176697 0.079626299440860748
  endloop
 endfacet
 facet normal 0 -0 1
  outer loop
   vertex 0.095347747206687927 0.035353168845176697 0.079626299440860748
   vertex 0.15699364244937897 0.034263357520103455 0.079626299440860748
   vertex 0.15849363803863525 0.035353168845176697 0.079626299440860748
  endloop
 endfacet
 facet normal 0 0 1
  outer loop
   vertex 0.095347747206687927 0.035353168845176697 0.079626299440860748
   vertex 0.15849363803863525 0.035353168845176697 0.079626299440860748
   vertex 0.027111347764730453 0.053775399923324585 0.079626299440860748
  endloop
 endfacet
 facet normal 0 -0 1
  outer loop
   vertex 0.027111347764730453 0.053775399923324585 0.079626299440860748
   vertex 0.15849363803863525 0.035353168845176697 0.079626299440860748
   vertex 0.22673004865646362 0.053775399923324585 0.079626299440860748
  endloop
 endfacet
 facet normal 0 0 1
  outer loop
   vertex 0.22673004865646362 0.053775399923324585 0.079626299440860748
   vertex 0.15849363803863525 0.035353168845176697 0.079626299440860748
   vertex 0.16034774482250214 0.035353168845176697 0.079626299440860748
  endloop
 endfacet
 facet normal -0 0 1
  outer loop
   vertex 0.22673004865646362 0.053775399923324585 0.079626299440860748
   vertex 0.16034774482250214 0.035353168845176697 0.079626299440860748
   vertex 0.16184774041175842 0.034263357520103455 0.079626299440860748
  endloop
 endfacet
 facet normal -0 0 1
  outer loop
   vertex 0.16184774041175842 -0.034263357520103455 0.079626299440860748
   vertex 0.16034774482250214 -0.035353168845176697 0.079626299440860748
   vertex 0.22673004865646362 -0.053775399923324585 0.079626299440860748
  endloop
 endfacet
 facet normal 0 0 1
  outer loop
   vertex 0.22673004865646362 -0.053775399923324585 0.079626299440860748
   vertex 0.16034774482250214 -0.035353168845176697 0.079626299440860748
   vertex 0.15849363803863525 -0.035353168845176697 0.079626299440860748
  endloop
 endfacet
 facet normal 0 0 1
  outer loop
   vertex 0.091993644833564758 0.034263357520103455 0.079626299440860748
   vertex 0.093493647873401642 0.035353168845176697 0.079626299440860748
   vertex 0.027111347764730453 0.053775399923324585 0.079626299440860748
  endloop
 endfacet
 facet normal 0 -0 1
  outer loop
   vertex 0.027111347764730453 0.053775399923324585 0.079626299440860748
   vertex 0.093493647873401642 0.035353168845176697 0.079626299440860748
   vertex 0.095347747206687927 0.035353168845176697 0.079626299440860748
  endloop
 endfacet
 facet normal 0.42261832920575865 -0 0.90630775557717302
  outer loop
   vertex 0.22673004865646362 0.053775399923324585 0.079626299440860748
   vertex 0.22673004865646362 -0.053775399923324585 0.079626299440860748
   vertex 0.28810864686965942 0.053775399923324585 0.051004983484745026
  endloop
 endfacet
 facet normal 0.42261832920575865 0 0.90630775557717302
  outer loop
   vertex 0.28810864686965942 0.053775399923324585 0.051004983484745026
   vertex 0.22673004865646362 -0.053775399923324585 0.079626299440860748
   vertex 0.28810864686965942 -0.053775399923324585 0.051004983484745026
  endloop
 endfacet
 facet normal -0.99518459902705536 0 0.098018436323779254
  outer loop
   vertex -0.00053667702013626695 0.026127379387617111 0.051978278905153275
   vertex -0.00053667702013626695 -0.026127379387617111 0.051978278905153275
   vertex -5.4208185247262008e-06 0.031521238386631012 0.057372141629457474
  endloop
 endfacet
 facet normal -0.99518459902705558 0 0.098018436323779282
  outer loop
   vertex -5.4208185247262008e-06 0.031521238386631012 0.057372141629457474
   vertex -0.00053667702013626695 -0.026127379387617111 0.051978278905153275
   vertex -5.4208185247262008e-06 -0.031521238386631012 0.057372141629457474
  endloop
 endfacet
 facet normal -0.95694028650545193 0 0.2902848395332826
  outer loop
   vertex -5.4208185247262008e-06 0.031521238386631012 0.057372141629457474
   vertex -5.4208185247262008e-06 -0.031521238386631012 0.057372141629457474
   vertex 0.0015679108910262585 0.036707818508148193 0.062558718025684357
  endloop
 endfacet
 facet normal -0.95694028650545193 0 0.2902848395332826
  outer loop
   vertex 0.0015679108910262585 0.036707818508148193 0.062558718025684357
   vertex -5.4208185247262008e-06 -0.031521238386631012 0.057372141629457474
   vertex 0.0015679108910262585 -0.036707818508148193 0.062558718025684357
  endloop
 endfacet
 facet normal -0.88192120454645129 0 0.47139684870747317
  outer loop
   vertex 0.0015679108910262585 0.036707818508148193 0.062558718025684357
   vertex 0.0015679108910262585 -0.036707818508148193 0.062558718025684357
   vertex 0.0041228639893233776 0.041487794369459152 0.067338697612285614
  endloop
 endfacet
 facet normal -0.8819212045464514 0 0.47139684870747323
  outer loop
   vertex 0.0041228639893233776 0.041487794369459152 0.067338697612285614
   vertex 0.0015679108910262585 -0.036707818508148193 0.062558718025684357
   vertex 0.0041228639893233776 -0.041487794369459152 0.067338697612285614
  endloop
 endfacet
 facet normal -0.7730113327183018 0 0.63439221266427515
  outer loop
   vertex 0.0041228639893233776 0.041487794369459152 0.067338697612285614
   vertex 0.0041228639893233776 -0.041487794369459152 0.067338697612285614
   vertex 0.007561239879578352 0.045677479356527328 0.07152838259935379
  endloop
 endfacet
 facet normal -0.7730113327183018 0 0.63439221266427515
  outer loop
   vertex 0.007561239879578352 0.045677479356527328 0.07152838259935379
   vertex 0.0041228639893233776 -0.041487794369459152 0.067338697612285614
   vertex 0.007561239879578352 -0.045677479356527328 0.07152838259935379
  endloop
 endfacet
 facet normal -0.6715580503469174 0 0.74095194514505947
  outer loop
   vertex 0.007561239879578352 0.045677479356527328 0.07152838259935379
   vertex 0.007561239879578352 -0.045677479356527328 0.07152838259935379
   vertex 0.0095716295763850212 0.047499585896730423 0.073350489139556885
  endloop
 endfacet
 facet normal -0.6715580503469174 0 0.74095194514505935
  outer loop
   vertex 0.0095716295763850212 0.047499585896730423 0.073350489139556885
   vertex 0.007561239879578352 -0.045677479356527328 0.07152838259935379
   vertex 0.0095716295763850212 -0.047499585896730423 0.073350489139556885
  endloop
 endfacet
 facet normal -0.59569837187962882 0 0.80320822315260154
  outer loop
   vertex 0.0095716295763850212 0.047499585896730423 0.073350489139556885
   vertex 0.0095716295763850212 -0.047499585896730423 0.073350489139556885
   vertex 0.011750931851565838 0.049115866422653198 0.074966765940189362
  endloop
 endfacet
 facet normal -0.59569837187962893 0 0.80320822315260165
  outer loop
   vertex 0.011750931851565838 0.049115866422653198 0.074966765940189362
   vertex 0.0095716295763850212 -0.047499585896730423 0.073350489139556885
   vertex 0.011750931851565838 -0.049115866422653198 0.074966765940189362
  endloop
 endfacet
 facet normal -0.51410278157314659 0 0.85772858759560611
  outer loop
   vertex 0.011750931851565838 0.049115866422653198 0.074966765940189362
   vertex 0.011750931851565838 -0.049115866422653198 0.074966765940189362
   vertex 0.014078165404498577 0.050510752946138382 0.076361656188964844
  endloop
 endfacet
 facet normal -0.51410278157314671 0 0.85772858759560633
  outer loop
   vertex 0.014078165404498577 0.050510752946138382 0.076361656188964844
   vertex 0.011750931851565838 -0.049115866422653198 0.074966765940189362
   vertex 0.014078165404498577 -0.050510752946138382 0.076361656188964844
  endloop
 endfacet
 facet normal -0.42755388993642179 0 0.90398986233266687
  outer loop
   vertex 0.014078165404498577 0.050510752946138382 0.076361656188964844
   vertex 0.014078165404498577 -0.050510752946138382 0.076361656188964844
   vertex 0.016530904918909073 0.051670819520950317 0.077521711587905884
  endloop
 endfacet
 facet normal -0.42755388993642179 0 0.90398986233266687
  outer loop
   vertex 0.016530904918909073 0.051670819520950317 0.077521711587905884
   vertex 0.014078165404498577 -0.050510752946138382 0.076361656188964844
   vertex 0.016530904918909073 -0.051670819520950317 0.077521711587905884
  endloop
 endfacet
 facet normal -0.33689212239141714 0 0.94154325331904243
  outer loop
   vertex 0.016530904918909073 0.051670819520950317 0.077521711587905884
   vertex 0.016530904918909073 -0.051670819520950317 0.077521711587905884
   vertex 0.019085552543401718 0.05258488655090332 0.078435786068439484
  endloop
 endfacet
 facet normal -0.33689212239141714 0 0.94154325331904232
  outer loop
   vertex 0.019085552543401718 0.05258488655090332 0.078435786068439484
   vertex 0.016530904918909073 -0.051670819520950317 0.077521711587905884
   vertex 0.019085552543401718 -0.05258488655090332 0.078435786068439484
  endloop
 endfacet
 facet normal -0.24298012910028405 0 0.97003126592002653
  outer loop
   vertex 0.019085552543401718 0.05258488655090332 0.078435786068439484
   vertex 0.019085552543401718 -0.05258488655090332 0.078435786068439484
   vertex 0.021717485040426254 0.053244151175022125 0.079095050692558289
  endloop
 endfacet
 facet normal -0.2429801291002841 0 0.97003126592002664
  outer loop
   vertex 0.021717485040426254 0.053244151175022125 0.079095050692558289
   vertex 0.019085552543401718 -0.05258488655090332 0.078435786068439484
   vertex 0.021717485040426254 -0.053244151175022125 0.079095050692558289
  endloop
 endfacet
 facet normal -0.14672958480116632 0 0.98917664193210564
  outer loop
   vertex 0.021717485040426254 0.053244151175022125 0.079095050692558289
   vertex 0.021717485040426254 -0.053244151175022125 0.079095050692558289
   vertex 0.02440137043595314 0.053642269223928452 0.079493165016174316
  endloop
 endfacet
 facet normal -0.14672958480116632 0 0.98917664193210575
  outer loop
   vertex 0.02440137043595314 0.053642269223928452 0.079493165016174316
   vertex 0.021717485040426254 -0.053244151175022125 0.079095050692558289
   vertex 0.02440137043595314 -0.053642269223928452 0.079493165016174316
  endloop
 endfacet
 facet normal -0.049068327162505497 0 0.99879542413322719
  outer loop
   vertex 0.02440137043595314 0.053642269223928452 0.079493165016174316
   vertex 0.02440137043595314 -0.053642269223928452 0.079493165016174316
   vertex 0.027111347764730453 0.053775399923324585 0.079626299440860748
  endloop
 endfacet
 facet normal -0.049068327162505504 0 0.99879542413322731
  outer loop
   vertex 0.027111347764730453 0.053775399923324585 0.079626299440860748
   vertex 0.02440137043595314 -0.053642269223928452 0.079493165016174316
   vertex 0.027111347764730453 -0.053775399923324585 0.079626299440860748
  endloop
 endfacet
 facet normal -0.99518459242346913 0.098018503370198878 0
  outer loop
   vertex -0.00053667702013626695 0.026127379387617111 0.027648020535707474
   vertex -0.00053667702013626695 0.026127379387617111 0.051978278905153275
   vertex -5.4208185247262008e-06 0.031521238386631012 0.022254159674048424
  endloop
 endfacet
 facet normal -0.99518459242346902 0.098018503370198851 0
  outer loop
   vertex -5.4208185247262008e-06 0.031521238386631012 0.022254159674048424
   vertex -0.00053667702013626695 0.026127379387617111 0.051978278905153275
   vertex -5.4208185247262008e-06 0.031521238386631012 0.057372141629457474
  endloop
 endfacet
 facet normal -0.956940344423306 0.29028464860375353 0
  outer loop
   vertex -5.4208185247262008e-06 0.031521238386631012 0.022254159674048424
   vertex -5.4208185247262008e-06 0.031521238386631012 0.057372141629457474
   vertex 0.0015679108910262585 0.036707818508148193 0.017067579552531242
  endloop
 endfacet
 facet normal -0.95694034442330589 0.29028464860375347 0
  outer loop
   vertex 0.0015679108910262585 0.036707818508148193 0.017067579552531242
   vertex -5.4208185247262008e-06 0.031521238386631012 0.057372141629457474
   vertex 0.0015679108910262585 0.036707818508148193 0.062558718025684357
  endloop
 endfacet
 facet normal -0.88192105181178904 0.47139713445372972 0
  outer loop
   vertex 0.0015679108910262585 0.036707818508148193 0.017067579552531242
   vertex 0.0015679108910262585 0.036707818508148193 0.062558718025684357
   vertex 0.0041228639893233776 0.041487794369459152 0.012287603691220284
  endloop
 endfacet
 facet normal -0.88192105181178904 0.47139713445372972 0
  outer loop
   vertex 0.0041228639893233776 0.041487794369459152 0.012287603691220284
   vertex 0.0015679108910262585 0.036707818508148193 0.062558718025684357
   vertex 0.0041228639893233776 0.041487794369459152 0.067338697612285614
  endloop
 endfacet
 facet normal -0.7730113327183018 0.63439221266427515 0
  outer loop
   vertex 0.0041228639893233776 0.041487794369459152 0.012287603691220284
   vertex 0.0041228639893233776 0.041487794369459152 0.067338697612285614
   vertex 0.007561239879578352 0.045677479356527328 0.0080979177728295326
  endloop
 endfacet
 facet normal -0.77301133271830191 0.63439221266427515 0
  outer loop
   vertex 0.007561239879578352 0.045677479356527328 0.0080979177728295326
   vertex 0.0041228639893233776 0.041487794369459152 0.067338697612285614
   vertex 0.007561239879578352 0.045677479356527328 0.07152838259935379
  endloop
 endfacet
 facet normal -0.67155805034691751 0.74095194514505947 0
  outer loop
   vertex 0.007561239879578352 0.045677479356527328 0.0080979177728295326
   vertex 0.007561239879578352 0.045677479356527328 0.07152838259935379
   vertex 0.0095716295763850212 0.047499585896730423 0.0062758116982877254
  endloop
 endfacet
 facet normal -0.6715580503469174 0.74095194514505947 0
  outer loop
   vertex 0.0095716295763850212 0.047499585896730423 0.0062758116982877254
   vertex 0.007561239879578352 0.045677479356527328 0.07152838259935379
   vertex 0.0095716295763850212 0.047499585896730423 0.073350489139556885
  endloop
 endfacet
 facet normal -0.59569925766102483 0.80320756621318246 0
  outer loop
   vertex 0.0095716295763850212 0.047499585896730423 0.0062758116982877254
   vertex 0.0095716295763850212 0.047499585896730423 0.073350489139556885
   vertex 0.011750931851565838 0.049115866422653198 0.0046595316380262375
  endloop
 endfacet
 facet normal -0.59569925766102483 0.80320756621318246 0
  outer loop
   vertex 0.011750931851565838 0.049115866422653198 0.0046595316380262375
   vertex 0.0095716295763850212 0.047499585896730423 0.073350489139556885
   vertex 0.011750931851565838 0.049115866422653198 0.074966765940189362
  endloop
 endfacet
 facet normal -0.51410177145943403 0.8577291930337172 0
  outer loop
   vertex 0.011750931851565838 0.049115866422653198 0.0046595316380262375
   vertex 0.011750931851565838 0.049115866422653198 0.074966765940189362
   vertex 0.014078165404498577 0.050510752946138382 0.0032646432518959045
  endloop
 endfacet
 facet normal -0.51410177145943403 0.8577291930337172 0
  outer loop
   vertex 0.014078165404498577 0.050510752946138382 0.0032646432518959045
   vertex 0.011750931851565838 0.049115866422653198 0.074966765940189362
   vertex 0.014078165404498577 0.050510752946138382 0.076361656188964844
  endloop
 endfacet
 facet normal -0.42755725597804212 0.90398827031136142 0
  outer loop
   vertex 0.014078165404498577 0.050510752946138382 0.0032646432518959045
   vertex 0.014078165404498577 0.050510752946138382 0.076361656188964844
   vertex 0.016530904918909073 0.051670819520950317 0.0021045801695436239
  endloop
 endfacet
 facet normal -0.42755725597804212 0.90398827031136142 0
  outer loop
   vertex 0.016530904918909073 0.051670819520950317 0.0021045801695436239
   vertex 0.014078165404498577 0.050510752946138382 0.076361656188964844
   vertex 0.016530904918909073 0.051670819520950317 0.077521711587905884
  endloop
 endfacet
 facet normal -0.33688968805529845 0.94154412434150081 0
  outer loop
   vertex 0.016530904918909073 0.051670819520950317 0.0021045801695436239
   vertex 0.016530904918909073 0.051670819520950317 0.077521711587905884
   vertex 0.019085552543401718 0.05258488655090332 0.0011905145365744829
  endloop
 endfacet
 facet normal -0.33688968805529851 0.94154412434150092 0
  outer loop
   vertex 0.019085552543401718 0.05258488655090332 0.0011905145365744829
   vertex 0.016530904918909073 0.051670819520950317 0.077521711587905884
   vertex 0.019085552543401718 0.05258488655090332 0.078435786068439484
  endloop
 endfacet
 facet normal -0.24298012910028408 0.97003126592002664 0
  outer loop
   vertex 0.019085552543401718 0.05258488655090332 0.0011905145365744829
   vertex 0.019085552543401718 0.05258488655090332 0.078435786068439484
   vertex 0.021717485040426254 0.053244151175022125 0.00053124892292544246
  endloop
 endfacet
 facet normal -0.24298012910028408 0.97003126592002653 0
  outer loop
   vertex 0.021717485040426254 0.053244151175022125 0.00053124892292544246
   vertex 0.019085552543401718 0.05258488655090332 0.078435786068439484
   vertex 0.021717485040426254 0.053244151175022125 0.079095050692558289
  endloop
 endfacet
 facet normal -0.14673092823901859 0.98917644265222782 0
  outer loop
   vertex 0.021717485040426254 0.053244151175022125 0.00053124892292544246
   vertex 0.021717485040426254 0.053244151175022125 0.079095050692558289
   vertex 0.02440137043595314 0.053642269223928452 0.00013313278032001108
  endloop
 endfacet
 facet normal -0.14673092823901857 0.98917644265222771 0
  outer loop
   vertex 0.02440137043595314 0.053642269223928452 0.00013313278032001108
   vertex 0.021717485040426254 0.053244151175022125 0.079095050692558289
   vertex 0.02440137043595314 0.053642269223928452 0.079493165016174316
  endloop
 endfacet
 facet normal -0.049066957466656208 0.99879549142202551 0
  outer loop
   vertex 0.02440137043595314 0.053642269223928452 0.00013313278032001108
   vertex 0.02440137043595314 0.053642269223928452 0.079493165016174316
   vertex 0.027111347764730453 0.053775399923324585 0
  endloop
 endfacet
 facet normal -0.049066957466656208 0.99879549142202551 0
  outer loop
   vertex 0.027111347764730453 0.053775399923324585 0
   vertex 0.02440137043595314 0.053642269223928452 0.079493165016174316
   vertex 0.027111347764730453 0.053775399923324585 0.079626299440860748
  endloop
 endfacet
 facet normal -0.049066957466656208 -0.99879549142202551 -0
  outer loop
   vertex 0.027111347764730453 -0.053775399923324585 0
   vertex 0.027111347764730453 -0.053775399923324585 0.079626299440860748
   vertex 0.02440137043595314 -0.053642269223928452 0.00013313278032001108
  endloop
 endfacet
 facet normal -0.049066957466656208 -0.99879549142202551 0
  outer loop
   vertex 0.02440137043595314 -0.053642269223928452 0.00013313278032001108
   vertex 0.027111347764730453 -0.053775399923324585 0.079626299440860748
   vertex 0.02440137043595314 -0.053642269223928452 0.079493165016174316
  endloop
 endfacet
 facet normal -0.14673092823901857 -0.98917644265222771 -0
  outer loop
   vertex 0.02440137043595314 -0.053642269223928452 0.00013313278032001108
   vertex 0.02440137043595314 -0.053642269223928452 0.079493165016174316
   vertex 0.021717485040426254 -0.053244151175022125 0.00053124892292544246
  endloop
 endfacet
 facet normal -0.14673092823901859 -0.98917644265222782 0
  outer loop
   vertex 0.021717485040426254 -0.053244151175022125 0.00053124892292544246
   vertex 0.02440137043595314 -0.053642269223928452 0.079493165016174316
   vertex 0.021717485040426254 -0.053244151175022125 0.079095050692558289
  endloop
 endfacet
 facet normal -0.24298012910028408 -0.97003126592002653 -0
  outer loop
   vertex 0.021717485040426254 -0.053244151175022125 0.00053124892292544246
   vertex 0.021717485040426254 -0.053244151175022125 0.079095050692558289
   vertex 0.019085552543401718 -0.05258488655090332 0.0011905145365744829
  endloop
 endfacet
 facet normal -0.24298012910028408 -0.97003126592002664 0
  outer loop
   vertex 0.019085552543401718 -0.05258488655090332 0.0011905145365744829
   vertex 0.021717485040426254 -0.053244151175022125 0.079095050692558289
   vertex 0.019085552543401718 -0.05258488655090332 0.078435786068439484
  endloop
 endfacet
 facet normal -0.33688968805529851 -0.94154412434150092 -0
  outer loop
   vertex 0.019085552543401718 -0.05258488655090332 0.0011905145365744829
   vertex 0.019085552543401718 -0.05258488655090332 0.078435786068439484
   vertex 0.016530904918909073 -0.051670819520950317 0.0021045801695436239
  endloop
 endfacet
 facet normal -0.33688968805529845 -0.94154412434150081 0
  outer loop
   vertex 0.016530904918909073 -0.051670819520950317 0.0021045801695436239
   vertex 0.019085552543401718 -0.05258488655090332 0.078435786068439484
   vertex 0.016530904918909073 -0.051670819520950317 0.077521711587905884
  endloop
 endfacet
 facet normal -0.42755725597804212 -0.90398827031136142 -0
  outer loop
   vertex 0.016530904918909073 -0.051670819520950317 0.0021045801695436239
   vertex 0.016530904918909073 -0.051670819520950317 0.077521711587905884
   vertex 0.014078165404498577 -0.050510752946138382 0.0032646432518959045
  endloop
 endfacet
 facet normal -0.42755725597804212 -0.90398827031136142 0
  outer loop
   vertex 0.014078165404498577 -0.050510752946138382 0.0032646432518959045
   vertex 0.016530904918909073 -0.051670819520950317 0.077521711587905884
   vertex 0.014078165404498577 -0.050510752946138382 0.076361656188964844
  endloop
 endfacet
 facet normal -0.51410177145943403 -0.8577291930337172 -0
  outer loop
   vertex 0.014078165404498577 -0.050510752946138382 0.0032646432518959045
   vertex 0.014078165404498577 -0.050510752946138382 0.076361656188964844
   vertex 0.011750931851565838 -0.049115866422653198 0.0046595316380262375
  endloop
 endfacet
 facet normal -0.51410177145943403 -0.8577291930337172 0
  outer loop
   vertex 0.011750931851565838 -0.049115866422653198 0.0046595316380262375
   vertex 0.014078165404498577 -0.050510752946138382 0.076361656188964844
   vertex 0.011750931851565838 -0.049115866422653198 0.074966765940189362
  endloop
 endfacet
 facet normal -0.59569925766102483 -0.80320756621318246 -0
  outer loop
   vertex 0.011750931851565838 -0.049115866422653198 0.0046595316380262375
   vertex 0.011750931851565838 -0.049115866422653198 0.074966765940189362
   vertex 0.0095716295763850212 -0.047499585896730423 0.0062758116982877254
  endloop
 endfacet
 facet normal -0.59569925766102483 -0.80320756621318246 0
  outer loop
   vertex 0.0095716295763850212 -0.047499585896730423 0.0062758116982877254
   vertex 0.011750931851565838 -0.049115866422653198 0.074966765940189362
   vertex 0.0095716295763850212 -0.047499585896730423 0.073350489139556885
  endloop
 endfacet
 facet normal -0.6715580503469174 -0.74095194514505947 -0
  outer loop
   vertex 0.0095716295763850212 -0.047499585896730423 0.0062758116982877254
   vertex 0.0095716295763850212 -0.047499585896730423 0.073350489139556885
   vertex 0.007561239879578352 -0.045677479356527328 0.0080979177728295326
  endloop
 endfacet
 facet normal -0.67155805034691751 -0.74095194514505947 0
  outer loop
   vertex 0.007561239879578352 -0.045677479356527328 0.0080979177728295326
   vertex 0.0095716295763850212 -0.047499585896730423 0.073350489139556885
   vertex 0.007561239879578352 -0.045677479356527328 0.07152838259935379
  endloop
 endfacet
 facet normal -0.77301133271830191 -0.63439221266427515 -0
  outer loop
   vertex 0.007561239879578352 -0.045677479356527328 0.0080979177728295326
   vertex 0.007561239879578352 -0.045677479356527328 0.07152838259935379
   vertex 0.0041228639893233776 -0.041487794369459152 0.012287603691220284
  endloop
 endfacet
 facet normal -0.7730113327183018 -0.63439221266427515 0
  outer loop
   vertex 0.0041228639893233776 -0.041487794369459152 0.012287603691220284
   vertex 0.007561239879578352 -0.045677479356527328 0.07152838259935379
   vertex 0.0041228639893233776 -0.041487794369459152 0.067338697612285614
  endloop
 endfacet
 facet normal -0.88192105181178904 -0.47139713445372972 -0
  outer loop
   vertex 0.0041228639893233776 -0.041487794369459152 0.012287603691220284
   vertex 0.0041228639893233776 -0.041487794369459152 0.067338697612285614
   vertex 0.0015679108910262585 -0.036707818508148193 0.017067579552531242
  endloop
 endfacet
 facet normal -0.88192105181178904 -0.47139713445372972 0
  outer loop
   vertex 0.0015679108910262585 -0.036707818508148193 0.017067579552531242
   vertex 0.0041228639893233776 -0.041487794369459152 0.067338697612285614
   vertex 0.0015679108910262585 -0.036707818508148193 0.062558718025684357
  endloop
 endfacet
 facet normal -0.95694034442330589 -0.29028464860375347 -0
  outer loop
   vertex 0.0015679108910262585 -0.036707818508148193 0.017067579552531242
   vertex 0.0015679108910262585 -0.036707818508148193 0.062558718025684357
   vertex -5.4208185247262008e-06 -0.031521238386631012 0.022254159674048424
  endloop
 endfacet
 facet normal -0.956940344423306 -0.29028464860375353 0
  outer loop
   vertex -5.4208185247262008e-06 -0.031521238386631012 0.022254159674048424
   vertex 0.0015679108910262585 -0.036707818508148193 0.062558718025684357
   vertex -5.4208185247262008e-06 -0.031521238386631012 0.057372141629457474
  endloop
 endfacet
 facet normal -0.99518459242346902 -0.098018503370198851 -0
  outer loop
   vertex -5.4208185247262008e-06 -0.031521238386631012 0.022254159674048424
   vertex -5.4208185247262008e-06 -0.031521238386631012 0.057372141629457474
   vertex -0.00053667702013626695 -0.026127379387617111 0.027648020535707474
  endloop
 endfacet
 facet normal -0.99518459242346913 -0.098018503370198878 0
  outer loop
   vertex -0.00053667702013626695 -0.026127379387617111 0.027648020535707474
   vertex -5.4208185247262008e-06 -0.031521238386631012 0.057372141629457474
   vertex -0.00053667702013626695 -0.026127379387617111 0.051978278905153275
  endloop
 endfacet
 facet normal -0.99518459572526385 -0 -0.098018469846977652
  outer loop
   vertex -0.00053667702013626695 -0.026127379387617111 0.027648020535707474
   vertex -0.00053667702013626695 0.026127379387617111 0.027648020535707474
   vertex -5.4208185247262008e-06 -0.031521238386631012 0.022254159674048424
  endloop
 endfacet
 facet normal -0.99518459572526397 0 -0.098018469846977652
  outer loop
   vertex -5.4208185247262008e-06 -0.031521238386631012 0.022254159674048424
   vertex -0.00053667702013626695 0.026127379387617111 0.027648020535707474
   vertex -5.4208185247262008e-06 0.031521238386631012 0.022254159674048424
  endloop
 endfacet
 facet normal -0.95694034442330589 -0 -0.29028464860375347
  outer loop
   vertex -5.4208185247262008e-06 -0.031521238386631012 0.022254159674048424
   vertex -5.4208185247262008e-06 0.031521238386631012 0.022254159674048424
   vertex 0.0015679108910262585 -0.036707818508148193 0.017067579552531242
  endloop
 endfacet
 facet normal -0.95694034442330589 0 -0.29028464860375347
  outer loop
   vertex 0.0015679108910262585 -0.036707818508148193 0.017067579552531242
   vertex -5.4208185247262008e-06 0.031521238386631012 0.022254159674048424
   vertex 0.0015679108910262585 0.036707818508148193 0.017067579552531242
  endloop
 endfacet
 facet normal -0.88192105181178904 -0 -0.47139713445372972
  outer loop
   vertex 0.0015679108910262585 -0.036707818508148193 0.017067579552531242
   vertex 0.0015679108910262585 0.036707818508148193 0.017067579552531242
   vertex 0.0041228639893233776 -0.041487794369459152 0.012287603691220284
  endloop
 endfacet
 facet normal -0.88192105181178904 0 -0.47139713445372966
  outer loop
   vertex 0.0041228639893233776 -0.041487794369459152 0.012287603691220284
   vertex 0.0015679108910262585 0.036707818508148193 0.017067579552531242
   vertex 0.0041228639893233776 0.041487794369459152 0.012287603691220284
  endloop
 endfacet
 facet normal -0.77301140187276607 -0 -0.63439212839906922
  outer loop
   vertex 0.0041228639893233776 -0.041487794369459152 0.012287603691220284
   vertex 0.0041228639893233776 0.041487794369459152 0.012287603691220284
   vertex 0.007561239879578352 -0.045677479356527328 0.0080979177728295326
  endloop
 endfacet
 facet normal -0.77301140187276596 0 -0.63439212839906922
  outer loop
   vertex 0.007561239879578352 -0.045677479356527328 0.0080979177728295326
   vertex 0.0041228639893233776 0.041487794369459152 0.012287603691220284
   vertex 0.007561239879578352 0.045677479356527328 0.0080979177728295326
  endloop
 endfacet
 facet normal -0.67155795612323199 -0 -0.74095203054420955
  outer loop
   vertex 0.007561239879578352 -0.045677479356527328 0.0080979177728295326
   vertex 0.007561239879578352 0.045677479356527328 0.0080979177728295326
   vertex 0.0095716295763850212 -0.047499585896730423 0.0062758116982877254
  endloop
 endfacet
 facet normal -0.67155795612323199 0 -0.74095203054420955
  outer loop
   vertex 0.0095716295763850212 -0.047499585896730423 0.0062758116982877254
   vertex 0.007561239879578352 0.045677479356527328 0.0080979177728295326
   vertex 0.0095716295763850212 0.047499585896730423 0.0062758116982877254
  endloop
 endfacet
 facet normal -0.59569914693846926 -0 -0.80320764833060465
  outer loop
   vertex 0.0095716295763850212 -0.047499585896730423 0.0062758116982877254
   vertex 0.0095716295763850212 0.047499585896730423 0.0062758116982877254
   vertex 0.011750931851565838 -0.049115866422653198 0.0046595316380262375
  endloop
 endfacet
 facet normal -0.59569914693846926 0 -0.80320764833060465
  outer loop
   vertex 0.011750931851565838 -0.049115866422653198 0.0046595316380262375
   vertex 0.0095716295763850212 0.047499585896730423 0.0062758116982877254
   vertex 0.011750931851565838 0.049115866422653198 0.0046595316380262375
  endloop
 endfacet
 facet normal -0.51410227651655771 -0 -0.85772889031470356
  outer loop
   vertex 0.011750931851565838 -0.049115866422653198 0.0046595316380262375
   vertex 0.011750931851565838 0.049115866422653198 0.0046595316380262375
   vertex 0.014078165404498577 -0.050510752946138382 0.0032646432518959045
  endloop
 endfacet
 facet normal -0.51410227651655771 0 -0.85772889031470356
  outer loop
   vertex 0.014078165404498577 -0.050510752946138382 0.0032646432518959045
   vertex 0.011750931851565838 0.049115866422653198 0.0046595316380262375
   vertex 0.014078165404498577 0.050510752946138382 0.0032646432518959045
  endloop
 endfacet
 facet normal -0.42755620409194617 -0 -0.90398876781876336
  outer loop
   vertex 0.014078165404498577 -0.050510752946138382 0.0032646432518959045
   vertex 0.014078165404498577 0.050510752946138382 0.0032646432518959045
   vertex 0.016530904918909073 -0.051670819520950317 0.0021045801695436239
  endloop
 endfacet
 facet normal -0.42755620409194617 0 -0.90398876781876347
  outer loop
   vertex 0.016530904918909073 -0.051670819520950317 0.0021045801695436239
   vertex 0.014078165404498577 0.050510752946138382 0.0032646432518959045
   vertex 0.016530904918909073 0.051670819520950317 0.0021045801695436239
  endloop
 endfacet
 facet normal -0.33688923161652412 -0 -0.9415442876576906
  outer loop
   vertex 0.016530904918909073 -0.051670819520950317 0.0021045801695436239
   vertex 0.016530904918909073 0.051670819520950317 0.0021045801695436239
   vertex 0.019085552543401718 -0.05258488655090332 0.0011905145365744829
  endloop
 endfacet
 facet normal -0.33688923161652412 0 -0.9415442876576906
  outer loop
   vertex 0.019085552543401718 -0.05258488655090332 0.0011905145365744829
   vertex 0.016530904918909073 0.051670819520950317 0.0021045801695436239
   vertex 0.019085552543401718 0.05258488655090332 0.0011905145365744829
  endloop
 endfacet
 facet normal -0.24298047227198122 -0 -0.97003117995994603
  outer loop
   vertex 0.019085552543401718 -0.05258488655090332 0.0011905145365744829
   vertex 0.019085552543401718 0.05258488655090332 0.0011905145365744829
   vertex 0.021717485040426254 -0.053244151175022125 0.00053124892292544246
  endloop
 endfacet
 facet normal -0.24298047227198119 0 -0.97003117995994592
  outer loop
   vertex 0.021717485040426254 -0.053244151175022125 0.00053124892292544246
   vertex 0.019085552543401718 0.05258488655090332 0.0011905145365744829
   vertex 0.021717485040426254 0.053244151175022125 0.00053124892292544246
  endloop
 endfacet
 facet normal -0.14673024077678154 -0 -0.98917654462769566
  outer loop
   vertex 0.021717485040426254 -0.053244151175022125 0.00053124892292544246
   vertex 0.021717485040426254 0.053244151175022125 0.00053124892292544246
   vertex 0.02440137043595314 -0.053642269223928452 0.00013313278032001108
  endloop
 endfacet
 facet normal -0.14673024077678154 0 -0.98917654462769566
  outer loop
   vertex 0.02440137043595314 -0.053642269223928452 0.00013313278032001108
   vertex 0.021717485040426254 0.053244151175022125 0.00053124892292544246
   vertex 0.02440137043595314 0.053642269223928452 0.00013313278032001108
  endloop
 endfacet
 facet normal -0.049067722570231155 -0 -0.99879545383515389
  outer loop
   vertex 0.02440137043595314 -0.053642269223928452 0.00013313278032001108
   vertex 0.02440137043595314 0.053642269223928452 0.00013313278032001108
   vertex 0.027111347764730453 -0.053775399923324585 0
  endloop
 endfacet
 facet normal -0.049067722570231148 0 -0.99879545383515378
  outer loop
   vertex 0.027111347764730453 -0.053775399923324585 0
   vertex 0.02440137043595314 0.053642269223928452 0.00013313278032001108
   vertex 0.027111347764730453 0.053775399923324585 0
  endloop
 endfacet
endsolid
